<mxfile host="app.diagrams.net" modified="2023-09-13T15:30:51.607Z" agent="Mozilla/5.0 (Windows NT 10.0; Win64; x64) AppleWebKit/537.36 (KHTML, like Gecko) Chrome/116.0.0.0 Safari/537.36" etag="JNfnk-UjsL5TX_jevUce" version="21.7.5" type="device">
  <diagram name="Страница — 1" id="B5tqYIe2usZOLMBNZvK-">
    <mxGraphModel dx="1434" dy="790" grid="1" gridSize="10" guides="1" tooltips="1" connect="1" arrows="1" fold="1" page="1" pageScale="1" pageWidth="827" pageHeight="1169" math="0" shadow="0">
      <root>
        <mxCell id="0" />
        <mxCell id="1" parent="0" />
        <mxCell id="TOFdJrFoTSUsdK4qt3hR-1" value="выбор режима фильтрации" style="rounded=0;whiteSpace=wrap;html=1;" vertex="1" parent="1">
          <mxGeometry x="340" y="110" width="180" height="30" as="geometry" />
        </mxCell>
        <mxCell id="TOFdJrFoTSUsdK4qt3hR-2" value="блок фильтрации контента" style="rounded=0;whiteSpace=wrap;html=1;" vertex="1" parent="1">
          <mxGeometry x="90" y="110" width="190" height="30" as="geometry" />
        </mxCell>
        <mxCell id="TOFdJrFoTSUsdK4qt3hR-3" value="" style="endArrow=classic;html=1;rounded=0;entryX=0;entryY=0.5;entryDx=0;entryDy=0;" edge="1" parent="1" target="TOFdJrFoTSUsdK4qt3hR-1">
          <mxGeometry width="50" height="50" relative="1" as="geometry">
            <mxPoint x="280" y="126" as="sourcePoint" />
            <mxPoint x="330" y="76" as="targetPoint" />
          </mxGeometry>
        </mxCell>
        <mxCell id="TOFdJrFoTSUsdK4qt3hR-4" value="" style="endArrow=none;html=1;rounded=0;exitX=0.5;exitY=1;exitDx=0;exitDy=0;endFill=0;" edge="1" parent="1" source="TOFdJrFoTSUsdK4qt3hR-1">
          <mxGeometry width="50" height="50" relative="1" as="geometry">
            <mxPoint x="390" y="430" as="sourcePoint" />
            <mxPoint x="430" y="180" as="targetPoint" />
          </mxGeometry>
        </mxCell>
        <mxCell id="TOFdJrFoTSUsdK4qt3hR-5" value="" style="endArrow=none;html=1;rounded=0;endFill=0;" edge="1" parent="1">
          <mxGeometry width="50" height="50" relative="1" as="geometry">
            <mxPoint x="430" y="180" as="sourcePoint" />
            <mxPoint x="240" y="180" as="targetPoint" />
          </mxGeometry>
        </mxCell>
        <mxCell id="TOFdJrFoTSUsdK4qt3hR-6" value="" style="endArrow=classic;html=1;rounded=0;" edge="1" parent="1">
          <mxGeometry width="50" height="50" relative="1" as="geometry">
            <mxPoint x="240" y="180" as="sourcePoint" />
            <mxPoint x="240" y="220" as="targetPoint" />
          </mxGeometry>
        </mxCell>
        <mxCell id="TOFdJrFoTSUsdK4qt3hR-7" value="фильтрация по цене" style="rounded=0;whiteSpace=wrap;html=1;" vertex="1" parent="1">
          <mxGeometry x="160" y="228" width="170" height="30" as="geometry" />
        </mxCell>
        <mxCell id="TOFdJrFoTSUsdK4qt3hR-9" value="фильтрация по популярности" style="rounded=0;whiteSpace=wrap;html=1;" vertex="1" parent="1">
          <mxGeometry x="340" y="228" width="180" height="30" as="geometry" />
        </mxCell>
        <mxCell id="TOFdJrFoTSUsdK4qt3hR-11" value="" style="endArrow=classic;html=1;rounded=0;" edge="1" parent="1">
          <mxGeometry width="50" height="50" relative="1" as="geometry">
            <mxPoint x="430" y="180" as="sourcePoint" />
            <mxPoint x="430" y="220" as="targetPoint" />
          </mxGeometry>
        </mxCell>
        <mxCell id="TOFdJrFoTSUsdK4qt3hR-12" value="" style="endArrow=none;html=1;rounded=0;endFill=0;" edge="1" parent="1">
          <mxGeometry width="50" height="50" relative="1" as="geometry">
            <mxPoint x="620" y="180" as="sourcePoint" />
            <mxPoint x="430" y="180" as="targetPoint" />
          </mxGeometry>
        </mxCell>
        <mxCell id="TOFdJrFoTSUsdK4qt3hR-13" value="" style="endArrow=classic;html=1;rounded=0;" edge="1" parent="1">
          <mxGeometry width="50" height="50" relative="1" as="geometry">
            <mxPoint x="620" y="180" as="sourcePoint" />
            <mxPoint x="620" y="220" as="targetPoint" />
          </mxGeometry>
        </mxCell>
        <mxCell id="TOFdJrFoTSUsdK4qt3hR-14" value="фильтрация по категории" style="rounded=0;whiteSpace=wrap;html=1;" vertex="1" parent="1">
          <mxGeometry x="530" y="228" width="180" height="30" as="geometry" />
        </mxCell>
        <mxCell id="TOFdJrFoTSUsdK4qt3hR-15" value="" style="endArrow=none;html=1;rounded=0;endFill=0;" edge="1" parent="1">
          <mxGeometry width="50" height="50" relative="1" as="geometry">
            <mxPoint x="240" y="305" as="sourcePoint" />
            <mxPoint x="620" y="305" as="targetPoint" />
          </mxGeometry>
        </mxCell>
        <mxCell id="TOFdJrFoTSUsdK4qt3hR-25" value="" style="endArrow=none;html=1;rounded=0;entryX=0.465;entryY=0.967;entryDx=0;entryDy=0;entryPerimeter=0;" edge="1" parent="1">
          <mxGeometry width="50" height="50" relative="1" as="geometry">
            <mxPoint x="239" y="305" as="sourcePoint" />
            <mxPoint x="239.04999999999995" y="264.01" as="targetPoint" />
          </mxGeometry>
        </mxCell>
        <mxCell id="TOFdJrFoTSUsdK4qt3hR-26" value="" style="endArrow=none;html=1;rounded=0;entryX=0.465;entryY=0.967;entryDx=0;entryDy=0;entryPerimeter=0;" edge="1" parent="1">
          <mxGeometry width="50" height="50" relative="1" as="geometry">
            <mxPoint x="430" y="305" as="sourcePoint" />
            <mxPoint x="430" y="264" as="targetPoint" />
          </mxGeometry>
        </mxCell>
        <mxCell id="TOFdJrFoTSUsdK4qt3hR-27" value="" style="endArrow=none;html=1;rounded=0;entryX=0.465;entryY=0.967;entryDx=0;entryDy=0;entryPerimeter=0;" edge="1" parent="1">
          <mxGeometry width="50" height="50" relative="1" as="geometry">
            <mxPoint x="620" y="305" as="sourcePoint" />
            <mxPoint x="620" y="264" as="targetPoint" />
          </mxGeometry>
        </mxCell>
        <mxCell id="TOFdJrFoTSUsdK4qt3hR-28" value="" style="endArrow=classic;html=1;rounded=0;endFill=1;" edge="1" parent="1">
          <mxGeometry width="50" height="50" relative="1" as="geometry">
            <mxPoint x="429.5" y="305" as="sourcePoint" />
            <mxPoint x="429.5" y="355" as="targetPoint" />
          </mxGeometry>
        </mxCell>
        <mxCell id="TOFdJrFoTSUsdK4qt3hR-29" value="отображение отфильтрованного контента" style="rounded=0;whiteSpace=wrap;html=1;" vertex="1" parent="1">
          <mxGeometry x="340" y="360" width="180" height="50" as="geometry" />
        </mxCell>
      </root>
    </mxGraphModel>
  </diagram>
</mxfile>
